<?xml version="1.0" encoding="UTF-8" standalone="no"?>
<!-- Created with Inkscape (http://www.inkscape.org/) -->

<svg
   xmlns:dc="http://purl.org/dc/elements/1.1/"
   xmlns:cc="http://creativecommons.org/ns#"
   xmlns:rdf="http://www.w3.org/1999/02/22-rdf-syntax-ns#"
   xmlns:svg="http://www.w3.org/2000/svg"
   xmlns="http://www.w3.org/2000/svg"
   xmlns:sodipodi="http://sodipodi.sourceforge.net/DTD/sodipodi-0.dtd"
   xmlns:inkscape="http://www.inkscape.org/namespaces/inkscape"
   width="419.18991"
   height="310.85452"
   id="svg3095"
   version="1.1"
   inkscape:version="0.48.0 r9654"
   sodipodi:docname="BdV Schriftzug.svg">
  <defs
     id="defs3097" />
  <sodipodi:namedview
     id="base"
     pagecolor="#ffffff"
     bordercolor="#666666"
     borderopacity="1.0"
     inkscape:pageopacity="0.0"
     inkscape:pageshadow="2"
     inkscape:zoom="1.2033265"
     inkscape:cx="209.59496"
     inkscape:cy="155.42726"
     inkscape:document-units="px"
     inkscape:current-layer="layer1"
     showgrid="false"
     fit-margin-top="0"
     fit-margin-left="0"
     fit-margin-right="0"
     fit-margin-bottom="0"
     inkscape:window-width="1024"
     inkscape:window-height="749"
     inkscape:window-x="-4"
     inkscape:window-y="-4"
     inkscape:window-maximized="1"
     inkscape:snap-global="false" />
  <metadata
     id="metadata3100">
    <rdf:RDF>
      <cc:Work
         rdf:about="">
        <dc:format>image/svg+xml</dc:format>
        <dc:type
           rdf:resource="http://purl.org/dc/dcmitype/StillImage" />
        <dc:title />
      </cc:Work>
    </rdf:RDF>
  </metadata>
  <g
     inkscape:label="Ebene 1"
     inkscape:groupmode="layer"
     id="layer1"
     transform="translate(-140.40505,-376.93493)">
    <path
       style="fill:#0549bc;fill-opacity:1;stroke:none"
       d="m 84.9375,53.1875 c -2.07742,-0.0209 -4.21449,-0.01025 -6.375,0.03125 -25.18728,0.47456 -78.5625,0 -78.5625,0 L 0,92.625 c 10.06343,1.00007 17.875,9.44599 17.875,19.78125 l 0,84.53125 c 0,10.33531 -7.8115,18.78125 -17.875,19.78125 l 0,40.90625 88.208383,0 c 54.108367,0 61.264827,-26.03804 64.947867,-45.53125 7.29873,26.81723 23.63461,45.53125 42.65625,45.53125 6.6685,0 13.00978,-2.29947 18.75,-6.4375 0.88237,1.34547 1.90722,2.62336 3.125,3.75 1.68468,1.55861 4.125,2.6875 4.125,2.6875 l 46.78125,0 0,-33.65625 c 0,0 -9.3518,-3.86907 -9.5,-14.84375 -0.18063,-13.37615 0,-41.03125 0,-41.03125 l 0,-36.3125 0,-14.5 c -0.29941,-14.97859 3.55277,-27.14527 13.59375,-27.8125 13.58393,-0.90266 15.67401,24.85002 18.75,38.875 9.3808,42.77182 28.84375,129.28125 28.84375,129.28125 l 54.53125,0 c 0,0 23.3334,-108.45721 33.75,-156.1875 1.8148,-8.31546 10.625,-10.125 10.625,-10.125 l -0.0937,-38.09375 -68.90625,0 0,37.125 c 0,0 4.09675,2.04803 5.40625,3.90625 3.68424,5.22808 1.52894,10.36056 0.59375,16.84375 -1.82038,12.61983 -5.49008,38.01622 -9.09375,37.90625 -3.4226,-0.10444 -9.56091,-25.19269 -12.46875,-37.78125 -1.36545,-5.91129 -3.42556,-11.08864 -0.4375,-16.65625 0.51825,-0.96565 4.75,-4.46875 4.75,-4.46875 l 0,-36.875 -79.84375,0 -8.9375,0 -48.375,0 0,31.15625 c 0,0 10.28975,3.83767 13.5625,10.875 2.3865,5.13165 1.5625,16.90625 1.5625,16.90625 -6.33742,-5.27823 -13.50457,-8.28125 -21.09375,-8.28125 -24.24852,0 -44.16709,30.35012 -46.5,69.21875 -8.36129,-12.40018 -22,-18.9375 -22,-18.9375 0,0 1.11686,-0.87821 3.09375,-3 0.0403,-0.0322 0.0848,-0.0614 0.125,-0.0937 8.28323,-6.66239 14.52744,-16.59764 17.4375,-28.21875 1.79309,-5.72157 2.65475,-12.62898 1.59375,-20 -0.003,-0.0203 0.003,-0.0422 0,-0.0625 C 147.56191,79.496805 132.16058,62.334779 113.25,56.90625 103.42335,54.08538 95.478263,53.293421 84.9375,53.1875 z m -11.34375,41.46875 7.46875,0 c 5.33272,0 9.625,4.32353 9.625,9.65625 l 0,19.15625 c 0,5.33272 -4.29228,9.625 -9.625,9.625 l -7.46875,0 z m 134.6875,49.5 1.75,0 c 3.99391,0 7.21875,3.22484 7.21875,7.21875 l 0,63.65625 c 0,3.99391 -3.22484,7.1875 -7.21875,7.1875 l -1.75,0 c -3.99391,0 -7.21875,-3.19359 -7.21875,-7.1875 l 0,-63.65625 c 0,-3.99391 3.22484,-7.21875 7.21875,-7.21875 z m -134.6875,31.5 7.46875,0 c 5.33272,0 9.625,4.32353 9.625,9.65625 l 0,19.15625 c 0,5.33272 -4.29228,9.625 -9.625,9.625 l -7.46875,0 z"
       transform="translate(140.40505,376.93493)"
       id="path3001"
       inkscape:connector-curvature="0"
       sodipodi:nodetypes="ccccssccscscscccscccssccsccccsssssccccccscscccccccsccssssccssssssssscsssscc" />
    <g
       id="g3052"
       style="fill:#0549bc;fill-opacity:1"
       transform="translate(-0.26271,49.69796)">
      <rect
         y="340.23166"
         x="140.66776"
         height="29.891897"
         width="419.18991"
         id="rect3048"
         style="fill:#0549bc;fill-opacity:1;stroke:none" />
      <rect
         style="fill:#0549bc;fill-opacity:1;stroke:none"
         id="rect3050"
         width="419.18991"
         height="7.0144587"
         x="140.66776"
         y="327.23697" />
    </g>
    <g
       transform="matrix(1,0,0,-1,-0.26271,1015.0264)"
       style="fill:#0549bc;fill-opacity:1"
       id="g3056">
      <rect
         style="fill:#0549bc;fill-opacity:1;stroke:none"
         id="rect3058"
         width="419.18991"
         height="29.891897"
         x="140.66776"
         y="340.23166" />
      <rect
         y="327.23697"
         x="140.66776"
         height="7.0144587"
         width="419.18991"
         id="rect3060"
         style="fill:#0549bc;fill-opacity:1;stroke:none" />
    </g>
  </g>
</svg>
